<svg width="56" height="68" viewBox="0 0 56 68" fill="none" xmlns="http://www.w3.org/2000/svg">
<g clip-path="url(#clip0_2048_408)">
<path d="M9.38903 27.048V27.0485C6.82956 27.0485 4.75458 29.1234 4.75458 31.6828C4.75458 32.1233 4.83572 32.5408 4.9504 32.9444C2.85339 33.388 1.27882 35.2467 1.27882 37.4758C1.27882 38.2773 1.50073 39.0196 1.85867 39.6774C0.806697 40.5269 0.120117 41.8113 0.120117 43.269C0.120117 45.1065 1.19801 46.6797 2.74837 47.4293C2.55576 47.9388 2.43735 48.485 2.43735 49.062C2.43735 51.6214 4.51233 53.6964 7.07181 53.6964H27.9267V27.0479H9.38887L9.38903 27.048Z" fill="#5E342E"/>
<path d="M55.7333 43.2692C55.7333 41.8116 55.0469 40.5272 53.9948 39.6775C54.3527 39.0199 54.5746 38.2774 54.5746 37.476C54.5746 35.247 52.9999 33.3882 50.9031 32.9445C51.0177 32.5409 51.0989 32.1235 51.0989 31.683C51.0989 29.1235 49.0239 27.0487 46.4644 27.0487V27.0482H27.9268V53.6966H48.7817C51.3411 53.6966 53.4161 51.6216 53.4161 49.0621C53.4161 48.4853 53.2977 47.939 53.1051 47.4295C54.6553 46.6799 55.7332 45.1065 55.7332 43.2692H55.7333Z" fill="#734A3E"/>
<path d="M49.4157 63.6645L48.0851 53.6849C47.9583 52.7342 47.6002 51.8508 47.0644 51.0968C47.3126 50.5666 47.1261 49.9224 46.6114 49.6136L42.8057 47.33C42.2641 47.005 41.562 47.1737 41.2271 47.7095L41.1469 47.8377L36.4628 46.1143C35.5166 45.7988 34.8784 44.9134 34.8784 43.9159V40.1793L39.8693 38.0997C42.4598 37.0203 44.1473 34.4893 44.1473 31.6829V21.2554C44.1473 18.0561 41.5537 13.1452 38.3544 13.1452H17.4996C14.3003 13.1452 11.7066 18.0561 11.7066 21.2554V31.6829C11.7066 34.4893 13.394 37.0203 15.9845 38.0997L20.9756 40.1795V43.9161C20.9756 44.9135 20.3373 45.799 19.3912 46.1144L14.7071 47.8379L14.6269 47.7097C14.2922 47.174 13.59 47.0053 13.0483 47.3302L9.24254 49.6137C8.72774 49.9225 8.54123 50.5668 8.78957 51.097C8.25409 51.851 7.89564 52.7344 7.76893 53.6851L6.43829 63.6646C6.16047 65.7484 7.78163 67.5998 9.88356 67.5998H45.9704C48.0725 67.5996 49.6937 65.7483 49.4157 63.6645Z" fill="#F7C08F"/>
<path d="M34.8784 40.0824H20.9752V43.9163C20.9752 44.7407 20.5383 45.488 19.8525 45.9005C29.545 47.5748 34.8784 40.0824 34.8784 40.0824Z" fill="#EDB68E"/>
<path d="M39.8691 38.0998L32.3824 41.2193C30.9703 41.8076 29.4558 42.1105 27.9263 42.1105C26.3966 42.1105 24.8822 41.8074 23.4701 41.2193L15.9839 38.1001C13.3935 37.0207 11.7061 34.4897 11.7061 31.6832V21.2558C11.7061 18.0565 14.2997 13.1456 17.499 13.1456H38.3538C41.5531 13.1456 44.1468 18.0565 44.1468 21.2558V31.6832C44.1468 34.4895 42.4594 37.0207 39.8689 38.0999L39.8691 38.0998Z" fill="#FFD5A8"/>
<path d="M19.8167 28.2073C19.1794 28.2073 18.6582 27.6858 18.6582 27.0487V25.8902C18.6582 25.2529 19.1796 24.7317 19.8167 24.7317C20.454 24.7317 20.9753 25.2531 20.9753 25.8902V27.0487C20.9753 27.6858 20.4538 28.2073 19.8167 28.2073Z" fill="#623F33"/>
<path d="M36.0365 28.2073C35.3992 28.2073 34.8779 27.6858 34.8779 27.0487V25.8902C34.8779 25.2529 35.3993 24.7317 36.0365 24.7317C36.6737 24.7317 37.195 25.2531 37.195 25.8902V27.0487C37.195 27.6858 36.6736 28.2073 36.0365 28.2073Z" fill="#623F33"/>
<path d="M27.927 36.3491C25.8672 36.3491 23.9405 35.8423 22.6408 34.958C22.112 34.5982 21.9744 33.8774 22.3347 33.3485C22.6939 32.8202 23.4153 32.6826 23.9442 33.0424C24.8551 33.6619 26.3439 34.0319 27.9268 34.0319C29.5097 34.0319 30.9987 33.6619 31.9096 33.0424C32.4396 32.6814 33.1592 32.8195 33.5191 33.3485C33.8794 33.8774 33.742 34.5982 33.2129 34.958C31.9136 35.8421 29.9867 36.3491 27.9268 36.3491H27.927Z" fill="#EDB68E"/>
<path d="M27.9263 9.66959C27.9263 9.66959 24.692 13.7723 17.2094 18.3585C14.9089 19.7684 11.7061 22.7973 11.7061 25.5997V31.6828C11.7061 34.4893 13.3935 37.0203 15.9839 38.0997L23.4699 41.2189C23.8363 41.3715 24.2102 41.503 24.589 41.617C21.2806 39.1968 19.0784 37.0811 17.7879 35.6976C16.8491 34.6912 16.3403 33.363 16.3403 31.9864L16.3405 23.8774C19.9101 19.9554 30.0782 16.6211 30.2437 13.145C30.3574 10.759 27.9265 9.66908 27.9265 9.66908L27.9263 9.66959Z" fill="#F7C08F"/>
<path d="M41.227 47.7096L37.0581 54.3799C36.4228 55.3962 35.309 56.0136 34.1107 56.0136H21.7431C20.5446 56.0136 19.4308 55.3964 18.7957 54.3799L14.6268 47.7096C14.292 47.174 13.5899 47.0053 13.0481 47.3302L9.24236 49.6137C8.68673 49.9471 8.51241 50.6716 8.85596 51.2213L14.0237 59.4897H41.8301L46.9978 51.2213C47.3414 50.6716 47.1672 49.9472 46.6114 49.6137L42.8057 47.3302C42.2641 47.0053 41.5618 47.174 41.2272 47.7096H41.227Z" fill="#EB41A4"/>
<path d="M41.8298 59.4894H14.0234V67.5997H41.8298V59.4894Z" fill="#FA55B5"/>
<path d="M11.706 28.3514C11.706 28.3031 11.706 28.2557 11.706 28.2071C11.706 21.0625 27.9265 15.2693 27.9265 11.9867V1.55921C27.9265 1.55921 27.4478 0.443535 24.4507 0.400676C22.8799 0.378146 19.8525 1.05236 17.499 2.71791C10.4521 7.70506 7.6511 19.095 6.55762 28.3514H11.706Z" fill="#5E342E"/>
<path d="M44.1472 28.2073C44.1472 28.2559 44.1472 28.3033 44.1472 28.3516H49.2956C48.2021 19.0952 45.4013 7.70524 38.3542 2.71809C36.0007 1.05254 32.9734 0.378329 31.4025 0.40086C28.4053 0.443718 27.9268 1.55939 27.9268 1.55939V11.9868C27.9268 15.2695 44.1472 21.0626 44.1472 28.2073Z" fill="#734A3E"/>
</g>
<defs>
<clipPath id="clip0_2048_408">
<rect width="55.613" height="67.2" fill="white" transform="translate(0.120117 0.399994)"/>
</clipPath>
</defs>
</svg>
