<svg width="10" height="6" viewBox="0 0 10 6" fill="none" xmlns="http://www.w3.org/2000/svg">
<path d="M0.159839 0.540393L0.487403 0.210553C0.590493 0.107544 0.727648 0.0507952 0.874234 0.0507952C1.02074 0.0507952 1.15806 0.107544 1.26115 0.210553L4.99776 3.94733L8.73869 0.206406C8.84162 0.103397 8.97893 0.04673 9.12544 0.04673C9.27195 0.04673 9.40934 0.103397 9.51235 0.206406L9.84 0.534214C10.0533 0.747386 10.0533 1.09462 9.84 1.3078L5.38598 5.77783C5.28305 5.88076 5.1459 5.95328 4.99809 5.95328H4.99638C4.8498 5.95328 4.71264 5.88068 4.60971 5.77783L0.159839 1.31991C0.0567484 1.21698 0.000163078 1.07568 0 0.929176C0 0.78259 0.0567484 0.643239 0.159839 0.540393Z" fill="#458AFB"/>
</svg>
